<mxfile host="app.diagrams.net" modified="2024-01-23T14:55:55.884Z" agent="Mozilla/5.0 (Windows NT 10.0; Win64; x64; rv:121.0) Gecko/20100101 Firefox/121.0" version="22.1.16" etag="8498-HUxpw3uhicZjVPA" type="github">
  <diagram name="Page-1" id="YbkVBJQaOre8kCmKPC6T">
    <mxGraphModel>
      <root>
        <mxCell id="0" />
        <mxCell id="1" parent="0" />
      </root>
    </mxGraphModel>
  </diagram>
</mxfile>
